<?xml version="1.0" standalone="no"?>
<!DOCTYPE svg PUBLIC "-//W3C//DTD SVG 20010904//EN"
 "http://www.w3.org/TR/2001/REC-SVG-20010904/DTD/svg10.dtd">
<svg version="1.0" xmlns="http://www.w3.org/2000/svg"
 width="800.000000pt" height="800.000000pt" viewBox="0 0 800.000000 800.000000"
 preserveAspectRatio="xMidYMid meet">
<metadata>
Created by potrace 1.14, written by Peter Selinger 2001-2017
</metadata>
<g transform="translate(0.000000,800.000000) scale(0.100000,-0.100000)"
fill="#000000" stroke="none">
<path d="M4314 5829 c-123 -43 -252 -108 -370 -185 -47 -31 -91 -53 -98 -51
-7 3 -16 24 -20 48 -13 81 -55 123 -113 113 -36 -6 -95 -37 -130 -68 -91 -78
-131 -111 -183 -146 -33 -22 -63 -40 -69 -40 -5 0 -11 -4 -13 -8 -4 -11 -218
-124 -218 -115 0 3 -7 -1 -17 -8 -9 -8 -19 -13 -22 -13 -3 1 -15 -2 -26 -6
-28 -11 -89 -24 -97 -22 -5 1 -8 -1 -8 -6 0 -8 -22 -10 -131 -12 -42 -1 -85 2
-95 8 -11 5 -23 11 -29 12 -24 6 -41 14 -57 28 -25 21 -22 6 6 -42 39 -67 102
-112 188 -134 41 -11 168 -12 183 -2 6 3 17 6 25 5 8 -1 37 7 64 17 51 20 66
19 41 -2 -8 -7 -15 -17 -15 -22 0 -5 -9 -19 -20 -31 -38 -40 -120 -224 -146
-324 -36 -141 -37 -410 -3 -502 6 -14 10 -28 10 -31 -1 -27 34 -131 75 -219
117 -254 310 -422 576 -501 40 -12 25 13 -17 30 -19 8 -35 17 -35 22 0 4 -7 8
-15 8 -8 0 -15 5 -15 10 0 6 -4 10 -10 10 -18 0 -180 154 -180 171 0 4 -7 14
-15 22 -41 42 -121 217 -130 285 -2 17 -6 35 -9 40 -3 5 -8 37 -12 73 -46 394
112 710 471 944 96 63 339 177 401 188 11 2 39 9 64 16 25 8 52 15 60 16 8 2
15 4 15 5 0 1 8 3 17 5 9 2 38 7 65 13 26 5 55 10 63 10 8 1 31 4 50 8 19 3
50 7 68 8 23 1 39 10 57 31 13 17 24 34 25 39 0 5 6 17 14 25 25 27 67 169 65
215 -6 112 -95 132 -285 65z"/>
<path d="M4056 5319 c-33 -11 -65 -24 -73 -30 -7 -6 -13 -9 -13 -6 0 6 -176
-81 -215 -105 -11 -7 -56 -41 -101 -75 -208 -158 -343 -373 -381 -608 -9 -51
-8 -240 0 -280 49 -229 130 -360 303 -492 24 -19 44 -31 44 -27 0 4 8 0 18 -8
14 -12 87 -50 102 -53 3 -1 34 -11 70 -22 132 -42 331 -49 500 -17 40 7 138
32 160 41 8 3 22 7 30 9 9 2 38 13 65 26 28 12 52 23 55 23 3 1 32 15 65 32
95 49 200 128 289 217 78 77 166 191 166 215 0 6 5 11 10 11 6 0 10 9 10 20 0
11 4 20 9 20 9 0 54 131 67 195 11 53 11 268 1 325 -5 24 -14 53 -19 65 -6 11
-11 21 -10 23 4 5 -44 100 -72 142 -62 92 -182 190 -286 234 -25 10 -54 22
-65 27 -11 5 -31 11 -45 13 -14 3 -38 8 -55 12 -32 7 -203 8 -245 1 -41 -6
-143 -40 -176 -58 -87 -48 -99 -57 -163 -120 -46 -46 -60 -66 -91 -124 -8 -16
-20 -37 -25 -45 -5 -8 -10 -19 -12 -25 -1 -5 -9 -37 -18 -70 -18 -64 -22 -162
-10 -235 33 -201 211 -343 420 -334 99 4 99 4 166 37 65 31 149 117 149 151 0
3 -27 3 -61 1 -161 -11 -275 95 -284 263 -3 53 21 152 37 152 4 0 8 4 8 10 0
16 49 59 91 79 61 30 149 46 149 28 0 -5 5 -5 13 2 8 6 16 9 19 6 2 -2 22 -7
43 -11 124 -19 255 -153 281 -285 9 -50 10 -189 1 -189 -5 0 -6 -4 -3 -9 7
-10 -34 -135 -46 -139 -4 -2 -8 -12 -8 -22 0 -10 -5 -22 -11 -25 -6 -4 -13
-15 -17 -25 -27 -70 -151 -186 -297 -277 -30 -19 -99 -48 -107 -45 -5 1 -8 -2
-8 -6 0 -4 -8 -8 -17 -9 -10 -1 -38 -8 -63 -17 -119 -40 -327 -43 -475 -5 -40
10 -47 12 -116 43 -60 26 -141 85 -196 144 -49 51 -109 153 -118 201 -2 12 -6
25 -9 29 -23 38 -25 273 -2 361 33 128 133 285 247 388 23 21 47 43 53 48 6 6
29 23 51 39 22 17 42 33 45 36 7 9 148 92 203 119 72 37 65 40 -27 10z"/>
<path d="M3708 3353 c9 -20 8 -57 -9 -183 -6 -47 -12 -96 -14 -110 -20 -191
-76 -310 -145 -310 -44 0 -63 30 -55 89 3 28 4 51 0 51 -3 0 -23 -11 -43 -25
-20 -14 -45 -25 -54 -25 -24 0 -23 -14 7 -64 41 -70 77 -98 132 -103 133 -11
215 134 238 420 2 23 11 61 19 85 8 23 15 44 16 47 0 3 0 20 0 39 0 22 9 45
25 64 13 16 22 32 18 36 -3 3 -37 6 -75 6 -62 0 -68 -2 -60 -17z"/>
<path d="M4076 3139 c-59 -16 -124 -71 -158 -134 -30 -54 -33 -69 -33 -141 0
-72 3 -84 27 -116 33 -43 100 -78 150 -78 36 0 96 34 131 74 48 54 71 119 75
212 l4 92 -34 36 c-40 43 -115 68 -162 55z m73 -64 c38 -19 55 -63 47 -122
-11 -84 -23 -123 -50 -158 -93 -122 -202 -48 -168 114 14 67 46 129 80 158 32
26 53 28 91 8z"/>
<path d="M4483 3113 c-75 -42 -108 -86 -144 -191 -25 -72 -24 -118 3 -157 35
-52 83 -78 149 -83 73 -5 128 18 187 80 49 51 93 110 88 116 -9 8 -43 -10 -81
-44 -48 -43 -149 -94 -187 -94 -38 0 -87 31 -95 59 -7 26 14 131 26 131 5 0
20 -9 35 -21 22 -17 32 -19 54 -11 15 6 47 12 72 15 65 6 119 34 137 72 14 29
14 35 -2 68 -24 52 -56 68 -139 73 -55 3 -78 0 -103 -13z m138 -64 c44 -44 1
-79 -92 -76 -32 1 -60 5 -64 9 -11 11 15 48 48 68 41 26 82 25 108 -1z"/>
<path d="M6600 2065 c0 -32 -2 -34 -27 -29 -39 7 -63 -14 -70 -63 -7 -56 18
-81 81 -81 l46 1 0 104 c0 85 -3 103 -15 103 -10 0 -15 -11 -15 -35z m0 -96
c0 -48 -28 -69 -54 -40 -26 29 -19 72 14 83 28 9 40 -4 40 -43z"/>
<path d="M7314 2089 c-8 -14 11 -33 25 -25 16 10 13 36 -3 36 -8 0 -18 -5 -22
-11z"/>
<path d="M3180 2033 c0 -5 8 -37 18 -73 13 -43 24 -66 35 -68 18 -4 19 -1 38
68 l12 45 11 -55 c9 -43 16 -56 31 -58 17 -2 23 7 38 62 21 78 21 86 3 86 -9
0 -17 -16 -21 -42 -12 -70 -21 -74 -34 -14 -8 37 -17 56 -27 56 -16 0 -17 -2
-35 -70 l-12 -45 -15 58 c-9 35 -19 57 -28 57 -8 0 -14 -3 -14 -7z"/>
<path d="M4056 2008 c19 -87 30 -113 51 -116 18 -3 22 4 28 45 5 26 8 52 6 56
-1 5 3 6 9 2 5 -3 10 -14 10 -24 0 -37 22 -81 40 -81 14 0 21 13 30 52 6 29
13 63 16 75 5 16 2 23 -9 23 -13 0 -27 -41 -31 -92 -2 -13 -16 -21 -17 -10 -1
7 -2 15 -3 20 -1 4 -5 24 -10 45 -5 28 -12 37 -23 35 -16 -3 -23 -19 -38 -83
l-8 -30 -7 30 c-4 17 -11 42 -14 58 -4 15 -13 27 -22 27 -12 0 -14 -7 -8 -32z"/>
<path d="M4920 2033 c0 -5 8 -37 18 -73 15 -51 23 -65 38 -65 14 0 22 12 31
49 13 53 23 70 23 40 0 -44 21 -94 39 -94 14 0 21 11 26 38 5 20 10 42 11 47
15 46 15 65 1 65 -10 0 -18 -14 -22 -42 -11 -66 -21 -77 -30 -32 -4 21 -11 47
-16 56 -11 21 -36 24 -36 6 0 -7 -6 -33 -13 -58 l-12 -45 -14 50 c-7 28 -13
53 -14 58 0 4 -7 7 -15 7 -8 0 -15 -3 -15 -7z"/>
<path d="M7310 1965 c0 -59 3 -75 14 -75 10 0 16 13 18 38 5 62 -3 112 -18
112 -11 0 -14 -18 -14 -75z"/>
<path d="M5805 1921 c-8 -15 3 -31 21 -31 9 0 14 7 12 17 -4 20 -24 28 -33 14z"/>
</g>
</svg>
