<?xml version="1.0" standalone="no"?>
<!DOCTYPE svg PUBLIC "-//W3C//DTD SVG 20010904//EN"
 "http://www.w3.org/TR/2001/REC-SVG-20010904/DTD/svg10.dtd">
<svg version="1.0" xmlns="http://www.w3.org/2000/svg"
 width="600.000000pt" height="600.000000pt" viewBox="0 0 600.000000 600.000000"
 preserveAspectRatio="xMidYMid meet">
<metadata>
Created by potrace 1.14, written by Peter Selinger 2001-2017
</metadata>
<g transform="translate(0.000000,600.000000) scale(0.100000,-0.100000)"
fill="#000000" stroke="none">
<path d="M4615 5309 c-66 -21 -87 -36 -126 -89 -40 -53 -66 -136 -78 -242 -15
-136 -45 -194 -118 -231 -16 -9 -56 -48 -90 -89 -33 -40 -96 -108 -139 -150
-80 -78 -775 -618 -795 -618 -6 0 -41 -7 -78 -16 -58 -14 -82 -28 -190 -113
-182 -140 -215 -198 -215 -366 1 -80 4 -97 32 -155 49 -102 220 -310 255 -310
56 0 87 -55 94 -169 2 -41 7 -80 12 -85 4 -6 13 -29 19 -51 22 -78 122 -145
238 -160 108 -14 159 -13 184 2 14 9 21 12 16 7 -247 -260 -389 -410 -448
-475 -13 -14 -64 -70 -114 -125 -50 -54 -124 -137 -164 -184 -150 -177 -209
-240 -391 -420 -193 -191 -244 -251 -283 -329 -38 -74 -41 -91 -17 -91 35 0
128 40 193 83 61 39 268 239 268 258 0 5 23 20 50 34 49 25 77 51 221 201 252
265 511 437 737 489 93 22 92 22 74 -27 -9 -26 -17 -82 -18 -138 -3 -134 20
-243 86 -405 39 -95 67 -135 114 -164 33 -20 176 -74 176 -66 0 2 15 -1 33 -6
17 -5 52 -12 77 -15 25 -3 56 -8 70 -10 14 -3 102 -7 195 -9 194 -4 262 8 390
70 128 61 295 199 400 330 22 28 43 52 46 55 3 3 33 43 66 90 140 199 197 482
132 655 -36 97 -157 205 -230 205 -11 0 -34 -9 -49 -20 -28 -20 -29 -20 -35
-1 -8 25 -63 101 -73 101 -5 0 -7 -16 -6 -35 2 -19 1 -35 -2 -35 -3 0 -33 27
-66 60 -33 34 -62 59 -65 57 -11 -11 -9 -118 3 -177 24 -112 80 -236 179 -390
40 -62 65 -140 60 -181 -1 -8 -5 -35 -8 -62 -18 -143 -163 -277 -387 -354 -52
-18 -95 -33 -95 -34 0 -5 -59 -12 -140 -15 -161 -6 -265 22 -339 92 -81 77
-93 215 -37 419 55 198 43 307 -41 367 -28 20 -44 23 -109 22 -42 -1 -117 -9
-166 -19 l-90 -17 -37 -57 c-37 -57 -98 -104 -155 -121 -50 -14 -42 1 72 139
92 110 335 326 480 425 103 70 175 135 209 190 33 54 140 162 169 171 21 7 26
25 7 25 -7 0 -35 8 -61 18 l-49 19 64 45 c122 87 223 203 283 327 101 206 123
407 59 538 -68 140 -266 208 -455 155 -105 -29 -285 -70 -344 -77 -87 -11
-108 -15 -215 -36 -84 -16 -206 -57 -274 -91 -162 -81 -244 -186 -346 -441
-30 -75 -59 -136 -65 -134 -5 2 -23 25 -39 50 -23 37 -29 61 -32 112 -5 121
43 201 180 296 98 68 144 104 191 148 112 104 430 357 594 471 l113 80 28 -20
c80 -57 145 -20 258 149 56 84 98 121 140 121 45 0 93 30 170 107 182 180 179
326 -9 441 -44 27 -75 27 -154 1z m-181 -1530 c91 -34 136 -99 132 -190 -3
-62 -21 -101 -82 -179 -70 -89 -255 -236 -369 -292 -95 -47 -304 -109 -421
-123 -74 -9 -202 -34 -262 -50 -64 -16 -76 -13 -92 25 -23 56 4 250 51 362 56
131 170 241 329 316 59 27 172 69 210 77 8 2 69 17 135 34 147 37 152 37 245
38 50 1 91 -5 124 -18z m-1108 -918 c1 -15 -9 -26 -35 -38 -20 -9 -39 -18 -43
-20 -5 -2 -8 15 -8 39 l0 43 42 -1 c37 -1 43 -5 44 -23z"/>
<path d="M2240 5139 c-19 -4 -48 -10 -65 -13 -162 -27 -168 -35 -162 -189 5
-119 -8 -161 -80 -265 -50 -71 -109 -190 -99 -200 4 -3 10 -2 14 4 14 21 105
77 163 100 36 15 84 25 122 27 56 2 62 0 62 -18 -1 -30 10 -33 94 -29 112 5
243 56 294 112 32 35 25 183 -13 312 -33 110 -105 160 -240 165 -30 1 -71 -1
-90 -6z"/>
<path d="M3230 5048 c-90 -25 -136 -94 -127 -193 8 -86 13 -102 52 -181 43
-88 89 -124 157 -124 94 0 180 62 298 214 46 60 94 102 144 128 l30 15 -50 -4
c-40 -4 -126 6 -179 20 -25 6 -119 60 -161 92 -25 19 -51 36 -57 36 -46 6 -77
5 -107 -3z"/>
<path d="M2093 4131 c-46 -10 -83 -17 -83 -16 0 3 -213 -71 -420 -144 -63 -23
-195 -68 -294 -101 -98 -33 -197 -69 -219 -80 -22 -11 -45 -20 -51 -20 -27 0
-352 -171 -455 -240 -147 -98 -149 -101 -128 -145 23 -49 89 -80 195 -91 28
-3 60 -7 69 -8 55 -8 190 35 353 112 133 64 419 160 775 263 138 39 142 39
109 -13 -15 -24 -64 -81 -110 -128 -46 -47 -110 -126 -143 -175 -68 -104 -89
-124 -151 -150 -153 -61 -156 -63 -195 -104 -63 -64 -110 -182 -98 -243 8 -42
45 -57 129 -52 62 3 250 52 297 76 16 8 17 7 9 -9 -52 -97 -222 -278 -297
-315 -53 -27 -156 -55 -233 -65 -47 -6 -105 -36 -132 -69 -44 -55 -52 -142
-20 -209 40 -83 91 -119 170 -118 31 0 66 6 79 12 20 11 21 10 15 -16 -4 -15
-19 -46 -33 -68 -107 -162 -150 -335 -102 -409 47 -70 321 -359 371 -390 96
-61 151 -64 186 -11 16 24 15 28 -11 86 -30 67 -44 108 -51 154 -3 17 -9 46
-13 65 -10 49 4 152 29 206 21 48 96 126 165 174 107 73 237 126 390 160 93
21 103 21 137 7 51 -21 57 -52 24 -114 -30 -54 -105 -138 -151 -169 -16 -12
-84 -42 -151 -67 -178 -69 -264 -131 -264 -189 0 -34 24 -95 47 -121 44 -47
125 -62 232 -41 126 24 212 69 300 155 61 60 71 79 77 150 8 79 42 147 100
194 23 19 56 55 72 81 27 39 30 53 28 102 -8 152 -98 264 -235 293 -279 58
-740 -171 -943 -468 -33 -49 -37 -51 -43 -31 -11 34 -7 106 9 162 48 165 237
318 536 435 215 85 381 181 459 266 l44 48 -29 24 c-16 13 -60 33 -98 45 -59
18 -84 20 -185 15 -64 -3 -127 -8 -141 -11 -99 -23 -102 -21 -70 32 38 62 109
121 200 167 82 42 117 71 165 138 76 104 84 176 24 211 -27 16 -44 18 -115 12
-46 -4 -92 -9 -104 -11 -11 -2 -48 -6 -83 -10 -34 -3 -81 -8 -104 -11 -24 -3
-43 -2 -43 2 0 4 31 48 68 98 146 194 338 357 516 440 69 32 113 71 129 118 8
22 -33 72 -77 95 -97 51 -288 66 -433 34z"/>
</g>
</svg>
